<svg width="373" height="27" viewBox="0 0 373 27" fill="none" xmlns="http://www.w3.org/2000/svg">
<path d="M359.41 24.1H13.3C7.33 24.1 2.5 19.27 2.5 13.3C2.5 7.33 7.33 2.5 13.3 2.5H359.41C365.38 2.5 370.21 7.33 370.21 13.3C370.21 19.27 365.38 24.1 359.41 24.1Z" stroke="#29ABE2" stroke-width="5" stroke-miterlimit="10"/>
<path d="M32.108 2.25977L10.418 23.9498H25.928L47.438 2.43979L32.108 2.25977Z" fill="#29ABE2"/>
<path d="M63.9087 2.25977L42.2188 23.9498H57.7288L79.2388 2.43979L63.9087 2.25977Z" fill="#29ABE2"/>
<path d="M95.7095 2.25977L74.0195 23.9498H89.5295L111.04 2.43979L95.7095 2.25977Z" fill="#29ABE2"/>
<path d="M127.51 2.25977L105.82 23.9498H121.33L142.84 2.43979L127.51 2.25977Z" fill="#29ABE2"/>
<path d="M159.311 2.25977L137.621 23.9498H153.131L174.641 2.43979L159.311 2.25977Z" fill="#29ABE2"/>
<path d="M191.108 2.25977L169.418 23.9498H184.928L206.438 2.43979L191.108 2.25977Z" fill="#29ABE2"/>
<path d="M16.8409 2.7998L2.92093 16.7198L2.71094 11.8598L5.02093 5.85979L8.89094 3.45979L16.8409 2.7998Z" fill="#29ABE2"/>
</svg>
