<svg width="141" height="140" viewBox="0 0 141 140" fill="none" xmlns="http://www.w3.org/2000/svg">
<path d="M53.3679 138.72C50.2687 137.976 47.2315 136.984 44.2563 135.744C44.1324 135.744 44.0704 135.682 44.0704 135.559C43.2026 133.451 42.4588 131.344 41.839 129.236C37.996 127.501 34.401 125.331 31.0538 122.728C28.8224 123.224 26.591 123.596 24.3596 123.844C24.2357 123.968 24.1737 123.968 24.1737 123.844C19.5249 119.939 15.434 115.662 11.901 110.641C8.55386 105.806 5.57866 100.6 3.5332 95.0213L4.09103 94.6494C6.13649 100.228 9.11169 105.435 12.4588 110.269C15.9919 115.104 19.8968 119.567 24.3596 123.286C26.715 123.038 28.9464 122.666 31.0538 122.17C31.0538 122.17 31.1158 122.17 31.2398 122.17C34.7729 124.773 38.4919 127.005 42.2109 128.678C42.3348 128.802 42.3968 128.926 42.3968 129.05C43.0167 131.158 43.7605 133.265 44.6282 135.373C47.6034 136.488 50.5786 137.418 53.5539 138.162L53.3679 138.72Z" fill="#40F4FF"/>
<path d="M5.2058 86.0955C6.32151 90.4343 7.87109 94.6492 9.85456 98.7401C9.48266 99.6698 9.11076 100.414 8.92481 101.343C8.55291 102.087 8.18101 102.831 7.99506 103.947C4.27605 97.4385 1.8587 90.5583 0.371094 83.4922C1.98266 84.4839 3.59423 85.3517 5.2058 86.0955Z" fill="#40F4FF"/>
<path fill-rule="evenodd" clip-rule="evenodd" d="M7.99587 104.132C7.87191 104.132 7.74795 104.071 7.62398 103.947C4.09092 97.6243 1.4876 90.7441 0 83.492C0 83.3681 0.0619948 83.3061 0.185962 83.3061C0.309929 83.1821 0.43389 83.1201 0.557857 83.1201C2.16943 84.1119 3.78101 85.0416 5.39258 85.9094C5.39258 85.9094 5.45455 85.9714 5.57851 86.0953C6.69422 90.3722 8.18184 94.649 10.0413 98.554C10.1653 98.6779 10.2273 98.7399 10.2273 98.7399C9.85537 99.6697 9.48349 100.413 9.11159 101.343C8.92564 102.087 8.55374 102.831 8.18184 103.947C8.18184 104.071 8.11984 104.132 7.99587 104.132ZM0.743805 84.0499C2.23141 90.7441 4.64875 97.0664 7.80991 103.203C8.05785 102.335 8.3058 101.653 8.55373 101.157C8.92563 100.228 9.11158 99.4837 9.48348 98.7399C7.62398 94.835 6.13636 90.5582 5.02066 86.2813C3.53305 85.6615 2.10744 84.9176 0.743805 84.0499Z" fill="#40F4FF"/>
<path d="M43.5117 132.955C47.1068 134.443 50.7638 135.62 54.4828 136.488C55.0406 137.418 55.4125 137.976 55.9704 138.906C52.0034 138.162 48.1605 137.046 44.4415 135.558C44.0696 134.691 43.7597 133.823 43.5117 132.955Z" fill="#40F4FF"/>
<path fill-rule="evenodd" clip-rule="evenodd" d="M55.9712 139.277C52.0043 138.409 48.0993 137.294 44.2563 135.93C44.2563 135.806 44.1943 135.744 44.0704 135.744C43.8224 134.752 43.5125 133.885 43.1406 133.141C43.1406 133.017 43.2026 132.893 43.3266 132.769C43.4506 132.645 43.5125 132.583 43.5125 132.583C47.1076 134.195 50.8266 135.434 54.6696 136.302C54.6696 136.302 54.7315 136.302 54.8555 136.302C55.4134 137.232 55.5993 137.79 56.1572 138.719C56.2811 138.843 56.2811 138.967 56.1572 139.091C56.1572 139.215 56.0952 139.277 55.9712 139.277ZM44.6282 135.372C48.0993 136.736 51.6944 137.79 55.4134 138.533C55.0415 137.976 54.6696 137.418 54.2976 136.86C50.8266 135.992 47.4175 134.876 44.0704 133.513C44.1943 134.133 44.3803 134.752 44.6282 135.372Z" fill="#40F4FF"/>
<path d="M11.529 102.087C10.9092 103.698 10.3513 105.434 9.85547 107.294C10.2274 107.789 10.5373 108.285 10.7852 108.781C11.2811 106.922 11.8389 105.124 12.4588 103.389C12.0869 102.893 11.7769 102.459 11.529 102.087Z" fill="#40F4FF"/>
<path fill-rule="evenodd" clip-rule="evenodd" d="M10.9716 109.526L10.5997 108.968C10.3517 108.472 10.0418 107.976 9.66992 107.48V107.294C10.1658 105.435 10.7237 103.637 11.3435 101.902L11.5294 101.344L11.9013 101.902C12.1493 102.398 12.3972 102.831 12.6451 103.203V103.389V103.575C12.1493 105.311 11.6534 107.046 11.1575 108.782L10.9716 109.526ZM10.2278 107.294C10.3517 107.542 10.5377 107.79 10.7856 108.038C11.1575 106.55 11.5914 105.063 12.0873 103.575C11.9633 103.327 11.8394 103.079 11.7154 102.831C11.0956 104.319 10.5997 105.807 10.2278 107.294Z" fill="#40F4FF"/>
<path d="M24.3595 123.658C19.1528 119.195 14.69 114.174 10.7851 108.596C7.06606 102.831 4.27679 96.6948 2.23133 90.1865C1.73547 91.0543 1.30159 91.9221 0.929688 92.7899C2.78919 98.7403 5.57846 104.505 9.11152 109.711C12.6446 114.918 16.7355 119.753 21.5702 124.03C22.438 123.906 23.3677 123.782 24.3595 123.658Z" fill="#40F4FF"/>
<path fill-rule="evenodd" clip-rule="evenodd" d="M21.569 124.215C21.4451 124.215 21.3831 124.215 21.3831 124.215C16.5484 119.938 12.4575 115.103 8.92441 109.897C5.39135 104.504 2.6021 98.7397 0.556641 92.7893C0.556641 92.7893 0.556641 92.7273 0.556641 92.6033C1.05251 91.7355 1.48639 90.9297 1.85829 90.1859C1.98225 90.0619 2.10622 90 2.23018 90C2.35415 90 2.41614 90.0619 2.41614 90.1859C4.4616 96.6942 7.4368 102.831 11.1558 108.409C14.8748 113.988 19.3376 119.008 24.5442 123.471C24.6682 123.471 24.6682 123.533 24.5442 123.657C24.5442 123.781 24.4823 123.905 24.3583 124.029C23.3666 124.153 22.4368 124.215 21.569 124.215ZM1.1145 92.7893C3.15995 98.7397 5.94921 104.318 9.48227 109.525C12.8294 114.731 16.9203 119.38 21.569 123.657C22.3128 123.533 22.9946 123.471 23.6145 123.471C18.5938 119.194 14.317 114.174 10.598 108.781C7.06489 103.202 4.0897 97.252 2.04425 91.1157C1.79632 91.6115 1.4864 92.1694 1.1145 92.7893Z" fill="#40F4FF"/>
<path d="M27.8926 126.633C31.6116 129.36 35.5785 131.716 39.7934 133.699C39.5455 132.831 39.2975 131.964 39.0496 131.096C36.0744 129.608 33.2851 127.935 30.6818 126.075C29.6901 126.199 28.7603 126.385 27.8926 126.633Z" fill="#40F4FF"/>
<path fill-rule="evenodd" clip-rule="evenodd" d="M39.7923 134.071C35.5154 132.025 31.4245 129.608 27.7055 126.819C27.5815 126.695 27.5195 126.571 27.5195 126.447C27.6435 126.323 27.7675 126.261 27.8914 126.261C28.7592 126.137 29.627 125.951 30.4947 125.703C30.6187 125.703 30.7427 125.703 30.8666 125.703C33.47 127.563 36.2592 129.236 39.2344 130.724C39.3584 130.848 39.4203 130.91 39.4203 130.91C39.6683 131.902 39.9162 132.831 40.1642 133.699C40.1642 133.823 40.1642 133.885 40.1642 133.885C40.0402 134.009 39.9162 134.071 39.7923 134.071ZM28.6352 126.819C31.9824 129.174 35.5774 131.282 39.4203 133.141C39.1724 132.521 38.9865 131.901 38.8625 131.282C36.0113 129.794 33.222 128.121 30.4947 126.261C29.8749 126.509 29.2551 126.695 28.6352 126.819Z" fill="#40F4FF"/>
<path d="M4.09103 43.8843L3.5332 43.6983C5.57866 38.1198 8.55386 32.7273 11.901 27.8926C15.434 23.0579 19.5249 18.5951 24.1737 14.6901C24.1737 14.6901 24.2357 14.6901 24.3596 14.6901C26.591 14.9381 28.8224 15.3099 31.0538 15.8058C34.401 13.3264 37.996 11.157 41.839 9.29752C42.4588 7.19008 43.2026 5.08266 44.0704 2.97522C44.0704 2.85125 44.1324 2.78926 44.2563 2.78926C47.2315 1.67355 50.2687 0.743802 53.3679 0L53.5539 0.557885C50.5786 1.30169 47.6034 2.23144 44.6282 3.34714C43.7605 5.45458 43.0167 7.56201 42.3968 9.66944C42.3968 9.79341 42.3348 9.85541 42.2109 9.85541C38.4919 11.7149 34.7729 13.9463 31.2398 16.3637C31.1158 16.4876 31.0538 16.5496 31.0538 16.5496C28.9464 16.0538 26.715 15.6199 24.3596 15.248C19.8968 19.1529 15.9919 23.4298 12.4588 28.2645C9.11169 33.0992 6.13649 38.3058 4.09103 43.8843Z" fill="#40F4FF"/>
<path d="M5.2058 52.4387C6.32151 48.0999 7.87109 43.947 9.85456 39.98C9.48266 38.8643 9.11076 38.1205 8.92481 37.3767C8.55291 36.6329 8.18101 35.7032 7.99506 34.7734C4.27605 41.0958 1.8587 47.9759 0.371094 55.228C1.98266 54.2362 3.59423 53.3065 5.2058 52.4387Z" fill="#40F4FF"/>
<path fill-rule="evenodd" clip-rule="evenodd" d="M0.371909 55.4138C0.247942 55.4138 0.185962 55.4138 0.185962 55.4138C0.0619948 55.2898 0 55.1658 0 55.0419C1.4876 47.9758 4.09092 40.9096 7.62398 34.5873C7.74795 34.4634 7.87191 34.4014 7.99587 34.4014C8.11984 34.4014 8.18184 34.4634 8.18184 34.5873C8.55374 35.703 8.92564 36.6328 9.11159 37.1906C9.48349 38.1204 9.85537 38.8642 10.2273 39.794C10.2273 39.9179 10.1653 39.9799 10.0413 39.9799C8.18184 44.0708 6.69422 48.3477 5.57851 52.6245C5.45455 52.6245 5.39258 52.6865 5.39258 52.8105C3.78101 53.5543 2.16943 54.4221 0.557857 55.4138C0.43389 55.4138 0.371909 55.4138 0.371909 55.4138ZM7.80991 35.5171C4.64875 41.4675 2.23141 47.7898 0.743805 54.484C2.10744 53.7402 3.53305 52.9964 5.02066 52.2526C6.13636 47.9758 7.62398 43.8848 9.48348 39.9799C9.11158 39.0501 8.92563 38.3063 8.55373 37.5625C8.3058 36.9427 8.05785 36.2609 7.80991 35.5171Z" fill="#40F4FF"/>
<path d="M11.529 36.6327C10.9092 34.8972 10.3513 33.0997 9.85547 31.2402C10.2274 30.8683 10.5373 30.4343 10.7852 29.9385C11.2811 31.674 11.8389 33.4096 12.4588 35.1451C12.0869 35.641 11.7769 36.1368 11.529 36.6327Z" fill="#40F4FF"/>
<path fill-rule="evenodd" clip-rule="evenodd" d="M11.5294 37.3761L11.3435 36.6324C10.7237 34.8968 10.1658 33.1613 9.66992 31.4258V31.2398C10.0418 30.7439 10.3517 30.248 10.5997 29.7522L10.9716 29.1943L11.1575 29.7522C11.6534 31.6117 12.1493 33.4092 12.6451 35.1448V35.3307C12.3972 35.8265 12.1493 36.3224 11.9013 36.8183L11.5294 37.3761ZM10.2278 31.4258C10.5997 32.9134 11.0336 34.401 11.5294 35.8886C11.7774 35.6406 11.9633 35.3927 12.0873 35.1448C11.5914 33.6572 11.1575 32.1695 10.7856 30.6819C10.5377 30.9299 10.3517 31.1778 10.2278 31.4258Z" fill="#40F4FF"/>
<path d="M24.3595 15.0623C19.1528 19.3392 14.69 24.3598 10.7851 30.1243C7.06606 35.7028 4.27679 41.8391 2.23133 48.3474C1.73547 47.6036 1.30159 46.7978 0.929688 45.9301C2.78919 39.9797 5.57846 34.2152 9.11152 29.0086C12.6446 23.616 16.7355 18.9673 21.5702 14.6904C22.438 14.8144 23.3677 14.9383 24.3595 15.0623Z" fill="#40F4FF"/>
<path fill-rule="evenodd" clip-rule="evenodd" d="M2.23018 48.7192C2.10622 48.7192 1.98225 48.6572 1.85829 48.5332C1.48639 47.6655 1.05251 46.8597 0.556641 46.1159C0.556641 45.9919 0.556641 45.8679 0.556641 45.744C2.6021 39.7936 5.39135 34.0291 8.92441 28.8225C12.4575 23.4299 16.5484 18.5952 21.3831 14.5043C21.3831 14.3804 21.4451 14.3184 21.569 14.3184C22.4368 14.4423 23.3666 14.5663 24.3583 14.6903C24.4823 14.6903 24.5442 14.7522 24.5442 14.8762C24.6682 15.0002 24.6682 15.1241 24.5442 15.2481C19.3376 19.525 14.8748 24.5456 11.1558 30.3101C7.4368 35.8886 4.4616 42.025 2.41614 48.5332C2.41614 48.6572 2.35415 48.7192 2.23018 48.7192ZM1.1145 45.9299C1.4864 46.4258 1.79632 46.9836 2.04425 47.6035C4.0897 41.2812 7.06489 35.3307 10.598 29.9382C14.317 24.3597 18.5938 19.525 23.6145 15.2481C22.9946 15.1241 22.3128 15.0621 21.569 15.0621C16.9203 19.1531 12.8294 23.9878 9.48227 29.1944C5.94921 34.401 3.15995 39.9795 1.1145 45.9299Z" fill="#40F4FF"/>
<path d="M136.115 43.8843C133.884 38.3058 131.094 33.0992 127.747 28.2645C124.214 23.4298 120.309 19.1529 115.847 15.248C113.491 15.6199 111.26 16.0538 109.152 16.5496C109.152 16.5496 109.09 16.4876 108.966 16.3637C105.433 13.9463 101.714 11.7149 97.8094 9.85541C97.8094 9.85541 97.7474 9.79341 97.6234 9.66944C97.1275 7.56201 96.4457 5.45458 95.578 3.34714C92.6028 2.23144 89.6276 1.30169 86.6523 0.557885V0C89.8755 0.743802 92.9747 1.67355 95.9499 2.78926C96.0738 2.78926 96.1358 2.85125 96.1358 2.97522C97.0036 5.08266 97.6854 7.19008 98.1813 9.29752C102.024 11.157 105.681 13.3264 109.152 15.8058C111.26 15.3099 113.491 14.9381 115.847 14.6901C115.971 14.6901 116.033 14.6901 116.033 14.6901C120.681 18.5951 124.772 23.0579 128.119 27.8926C131.652 32.7273 134.442 38.1198 136.673 43.6983L136.115 43.8843Z" fill="#40F4FF"/>
<path d="M135 52.4387C133.885 48.0999 132.335 43.947 130.352 39.98C130.723 38.8643 131.095 38.1205 131.281 37.3767C131.653 36.6329 131.839 35.7032 132.211 34.7734C135.744 41.0958 138.347 47.9759 139.835 55.228C138.223 54.2362 136.612 53.3065 135 52.4387Z" fill="#40F4FF"/>
<path fill-rule="evenodd" clip-rule="evenodd" d="M139.834 55.4138C139.71 55.4138 139.648 55.4138 139.648 55.4138C138.036 54.4221 136.425 53.5543 134.813 52.8105C134.689 52.6865 134.627 52.6245 134.627 52.6245C133.512 48.3477 132.024 44.0708 129.979 39.9799C129.979 39.9799 129.979 39.9179 129.979 39.794C130.35 38.8642 130.722 38.1204 131.094 37.1906C131.28 36.6328 131.652 35.703 132.024 34.5873C132.024 34.4634 132.086 34.4014 132.21 34.4014C132.334 34.4014 132.458 34.4634 132.582 34.5873C136.115 40.9096 138.718 47.9758 140.02 55.0419C140.144 55.1658 140.144 55.2898 140.02 55.4138C139.896 55.4138 139.834 55.4138 139.834 55.4138ZM135.185 52.2526C136.549 52.9964 137.912 53.7402 139.276 54.484C137.974 47.7898 135.557 41.4675 132.396 35.5171C132.024 36.2609 131.776 36.9427 131.652 37.5625C131.28 38.3063 131.094 39.0501 130.722 39.9799C132.582 43.8848 134.069 47.9758 135.185 52.2526Z" fill="#40F4FF"/>
<path d="M128.492 36.6327C129.112 34.8972 129.67 33.0997 130.165 31.2402C129.917 30.8683 129.608 30.4343 129.236 29.9385C128.864 31.674 128.368 33.4096 127.748 35.1451C127.996 35.641 128.244 36.1368 128.492 36.6327Z" fill="#40F4FF"/>
<path fill-rule="evenodd" clip-rule="evenodd" d="M128.677 37.3761L128.305 36.8183C128.057 36.3224 127.809 35.8265 127.561 35.3307H127.375L127.561 35.1448C128.057 33.4092 128.553 31.6117 129.049 29.7522L129.235 29.1943L129.606 29.7522C129.854 30.248 130.164 30.7439 130.536 31.2398V31.4258C130.04 33.1613 129.482 34.8968 128.863 36.6324L128.677 37.3761ZM128.119 35.3307C128.243 35.5786 128.367 35.7646 128.491 35.8886C128.987 34.5249 129.482 33.0373 129.978 31.4258C129.854 31.1778 129.668 30.9299 129.42 30.6819C129.049 32.2935 128.615 33.8431 128.119 35.3307Z" fill="#40F4FF"/>
<path d="M115.848 15.0623C121.054 19.3392 125.517 24.3598 129.236 30.1243C132.955 35.7028 135.93 41.8391 137.976 48.3474C138.472 47.6036 138.906 46.7978 139.277 45.9301C137.232 39.9797 134.443 34.2152 131.096 29.0086C127.563 23.616 123.286 18.9673 118.637 14.6904C117.645 14.8144 116.715 14.9383 115.848 15.0623Z" fill="#40F4FF"/>
<path fill-rule="evenodd" clip-rule="evenodd" d="M137.975 48.7192C137.851 48.7192 137.727 48.6572 137.603 48.5332C135.743 42.025 132.768 35.8886 129.049 30.3101C125.33 24.5456 120.867 19.525 115.661 15.2481C115.537 15.1241 115.475 15.0002 115.475 14.8762C115.599 14.7522 115.723 14.6903 115.847 14.6903C116.714 14.5663 117.644 14.4423 118.636 14.3184C118.76 14.3184 118.822 14.3804 118.822 14.5043C123.656 18.5952 127.747 23.4299 131.28 28.8225C134.813 34.0291 137.603 39.7936 139.648 45.744C139.648 45.8679 139.648 45.9919 139.648 46.1159C139.152 46.8597 138.656 47.6655 138.161 48.5332C138.161 48.6572 138.099 48.7192 137.975 48.7192ZM116.59 15.2481C121.611 19.525 125.888 24.3597 129.607 29.9382C133.14 35.3307 136.115 41.2812 137.975 47.6035C138.346 46.9836 138.718 46.4258 139.09 45.9299C137.045 39.9795 134.256 34.401 130.723 29.1944C127.375 23.9878 123.285 19.1531 118.45 15.0621C117.83 15.0621 117.21 15.1241 116.59 15.2481Z" fill="#40F4FF"/>
<path d="M86.6523 138.72V138.162C89.6276 137.418 92.6028 136.488 95.578 135.373C96.4457 133.265 97.1275 131.158 97.6234 129.05C97.7474 128.926 97.8094 128.802 97.8094 128.678C101.714 127.005 105.433 124.773 108.966 122.17C109.09 122.17 109.152 122.17 109.152 122.17C111.26 122.666 113.491 123.038 115.847 123.286C120.309 119.567 124.214 115.104 127.747 110.269C131.094 105.435 133.884 100.228 136.115 94.6494L136.673 95.0213C134.442 100.6 131.652 105.806 128.119 110.641C124.772 115.662 120.681 119.939 116.033 123.844C116.033 123.968 115.971 123.968 115.847 123.844C113.491 123.596 111.26 123.224 109.152 122.728C105.681 125.331 102.024 127.501 98.1813 129.236C97.6854 131.344 97.0036 133.451 96.1358 135.559C96.1358 135.682 96.0738 135.744 95.9499 135.744C92.9747 136.984 89.8755 137.976 86.6523 138.72Z" fill="#40F4FF"/>
<path d="M135 86.0955C133.885 90.4343 132.335 94.6492 130.352 98.7401C130.723 99.6698 131.095 100.414 131.281 101.343C131.653 102.087 131.839 102.831 132.211 103.947C135.744 97.4385 138.347 90.5583 139.835 83.4922C138.223 84.4839 136.612 85.3517 135 86.0955Z" fill="#40F4FF"/>
<path fill-rule="evenodd" clip-rule="evenodd" d="M132.21 104.132C132.086 104.132 132.024 104.071 132.024 103.947C131.652 102.831 131.28 102.087 131.094 101.343C130.722 100.413 130.35 99.6697 129.979 98.7399C129.979 98.7399 129.979 98.6779 129.979 98.554C132.024 94.649 133.512 90.3722 134.627 86.0953C134.627 85.9714 134.689 85.9094 134.813 85.9094C136.425 85.0416 138.036 84.1119 139.648 83.1201C139.772 83.1201 139.896 83.1821 140.02 83.3061C140.144 83.3061 140.144 83.3681 140.02 83.492C138.718 90.7441 136.115 97.6243 132.582 103.947C132.458 104.071 132.334 104.132 132.21 104.132ZM130.722 98.7399C131.094 99.4837 131.28 100.228 131.652 101.157C131.776 101.653 132.024 102.335 132.396 103.203C135.557 97.0664 137.974 90.7441 139.276 84.0499C137.912 84.9176 136.549 85.6615 135.185 86.2813C134.069 90.5582 132.582 94.835 130.722 98.7399Z" fill="#40F4FF"/>
<path d="M96.693 132.955C93.098 134.443 89.379 135.62 85.536 136.488C85.1641 137.418 84.7922 137.976 84.2344 138.906C88.2013 138.162 92.0443 137.046 95.7633 135.558C96.1352 134.691 96.4451 133.823 96.693 132.955Z" fill="#40F4FF"/>
<path fill-rule="evenodd" clip-rule="evenodd" d="M84.236 139.277C84.112 139.277 84.05 139.215 84.05 139.091C83.926 138.967 83.926 138.843 84.05 138.719C84.6079 137.79 84.7938 137.232 85.3517 136.302C85.3517 136.302 85.4136 136.302 85.5376 136.302C89.2566 135.434 92.9137 134.195 96.5087 132.583C96.6327 132.583 96.7566 132.645 96.8806 132.769C97.0046 132.893 97.0665 133.017 97.0665 133.141C96.6946 133.885 96.3228 134.752 95.9509 135.744C95.9509 135.744 95.8889 135.806 95.7649 135.93C92.0459 137.294 88.2029 138.409 84.236 139.277ZM85.9095 136.86C85.5376 137.418 85.1657 137.976 84.7938 138.533C88.5128 137.79 92.1079 136.736 95.579 135.372C95.7029 134.752 95.8888 134.133 96.1368 133.513C92.7897 134.876 89.3806 135.992 85.9095 136.86Z" fill="#40F4FF"/>
<path d="M128.492 102.087C129.112 103.698 129.67 105.434 130.165 107.294C129.917 107.789 129.608 108.285 129.236 108.781C128.864 106.922 128.368 105.124 127.748 103.389C127.996 102.893 128.244 102.459 128.492 102.087Z" fill="#40F4FF"/>
<path fill-rule="evenodd" clip-rule="evenodd" d="M129.235 109.526L129.049 108.782C128.553 107.046 128.057 105.311 127.561 103.575L127.375 103.389L127.561 103.203C127.809 102.831 128.057 102.398 128.305 101.902L128.677 101.344L128.863 101.902C129.482 103.637 130.04 105.435 130.536 107.294V107.48C130.164 107.976 129.854 108.472 129.606 108.968L129.235 109.526ZM128.119 103.389C128.615 104.877 129.049 106.426 129.42 108.038C129.544 107.79 129.73 107.542 129.978 107.294C129.482 105.683 128.987 104.133 128.491 102.645C128.367 102.893 128.243 103.141 128.119 103.389Z" fill="#40F4FF"/>
<path d="M115.848 123.658C121.054 119.195 125.517 114.174 129.236 108.596C132.955 102.831 135.93 96.6948 137.976 90.1865C138.472 91.0543 138.906 91.9221 139.277 92.7899C137.232 98.7403 134.443 104.505 131.096 109.711C127.563 114.918 123.286 119.753 118.637 124.03C117.645 123.906 116.715 123.782 115.848 123.658Z" fill="#40F4FF"/>
<path fill-rule="evenodd" clip-rule="evenodd" d="M118.636 124.215C117.644 124.215 116.714 124.153 115.847 124.029C115.723 123.905 115.599 123.781 115.475 123.657C115.475 123.533 115.537 123.471 115.661 123.471C120.867 119.008 125.33 113.988 129.049 108.409C132.768 102.831 135.743 96.6942 137.603 90.1859C137.727 90.0619 137.851 90 137.975 90C138.099 90 138.161 90.0619 138.161 90.1859C138.656 90.9297 139.152 91.7355 139.648 92.6033C139.648 92.7273 139.648 92.7893 139.648 92.7893C137.603 98.7397 134.813 104.504 131.28 109.897C127.747 115.103 123.656 119.938 118.822 124.215C118.822 124.215 118.76 124.215 118.636 124.215ZM116.59 123.471C117.21 123.471 117.83 123.533 118.45 123.657C123.285 119.38 127.375 114.731 130.723 109.525C134.256 104.318 137.045 98.7397 139.09 92.7893C138.718 92.1694 138.346 91.6115 137.975 91.1157C136.115 97.252 133.14 103.202 129.607 108.781C125.888 114.174 121.611 119.194 116.59 123.471Z" fill="#40F4FF"/>
<path d="M112.313 126.633C108.594 129.36 104.565 131.716 100.227 133.699C100.598 132.831 100.908 131.964 101.156 131.096C104.008 129.608 106.797 127.935 109.524 126.075C110.392 126.199 111.322 126.385 112.313 126.633Z" fill="#40F4FF"/>
<path fill-rule="evenodd" clip-rule="evenodd" d="M100.227 134.071C100.227 134.071 100.165 134.009 100.041 133.885C100.041 133.885 100.041 133.823 100.041 133.699C100.289 132.831 100.537 131.902 100.785 130.91C100.785 130.91 100.847 130.848 100.971 130.724C103.822 129.236 106.611 127.563 109.339 125.703C109.463 125.703 109.586 125.703 109.71 125.703C110.578 125.951 111.446 126.137 112.314 126.261C112.438 126.261 112.5 126.323 112.5 126.447C112.624 126.571 112.624 126.695 112.5 126.819C108.781 129.608 104.69 132.025 100.413 134.071C100.413 134.071 100.351 134.071 100.227 134.071ZM101.343 131.282C101.219 131.901 101.033 132.521 100.785 133.141C104.504 131.282 108.099 129.174 111.57 126.819C110.95 126.695 110.33 126.509 109.71 126.261C106.983 128.121 104.194 129.794 101.343 131.282Z" fill="#40F4FF"/>
<g style="mix-blend-mode:screen">
<path d="M69.9177 22.5C69.9177 26.4669 69.9177 28.4504 69.9177 28.4504C69.9177 30.4339 69.9177 32.3554 69.9177 34.2149C69.9177 34.2149 69.3598 34.2768 68.2441 34.4008C68.0582 32.3554 68.0582 30.4959 67.8722 28.4504C67.8722 28.4504 67.8723 26.405 67.6863 22.686C69.1739 22.562 69.9177 22.5 69.9177 22.5ZM25.8475 53.9256C28.8227 45.1859 34.4012 37.562 41.8392 31.9835C45.6822 29.1322 49.897 26.9008 54.4838 25.2893C56.5293 24.5455 58.9466 23.8017 61.178 23.4298C62.2937 23.1818 63.4094 22.9959 64.5251 22.8719C65.6408 22.686 66.5706 22.686 67.6863 22.686C67.8723 26.405 67.8722 28.4504 67.8722 28.4504C68.0582 30.4959 68.0582 32.3554 68.2441 34.4008C65.3929 34.5248 62.6036 34.9587 59.8764 35.7025C58.0169 36.1984 56.2813 36.8802 54.6698 37.748C52.9962 38.6777 51.3227 39.6075 49.8351 40.5372C48.3475 41.6529 46.8598 42.7686 45.5582 44.0703C44.3185 45.3099 43.1408 46.6736 42.0251 48.1612C39.9797 50.9504 38.3061 53.9256 37.0045 57.2728C35.5169 60.9918 34.7731 65.2686 34.7731 69.3595C32.9136 69.3595 30.9921 69.3595 29.0086 69.3595C29.0086 69.3595 27.0871 69.3595 23.2441 69.3595C23.2441 64.1529 23.988 58.7603 25.8475 53.9256Z" fill="url(#paint0_linear_2002_4)"/>
<path d="M26.7764 86.0951C26.5285 85.4752 26.2805 84.8554 26.0326 84.2356C25.9086 83.8637 25.7847 83.5537 25.6607 83.3058C25.5367 82.9339 25.4747 82.562 25.4747 82.1901C25.2268 81.5703 25.0409 80.8884 24.9169 80.1446C24.731 79.5868 24.545 78.843 24.3591 78.0992C24.1111 76.7355 23.9252 75.3099 23.8012 73.8223C23.6772 72.3347 23.6152 70.8471 23.6152 69.3595C27.4582 69.3595 29.3797 69.3595 29.3797 69.3595C31.3632 69.3595 33.3466 69.3595 35.3301 69.3595C35.3301 73.8223 36.0739 78.0992 37.5615 82.0041C38.6772 84.6074 39.9789 87.2107 41.6524 89.4421C39.9789 90.5579 38.3053 91.4876 36.8177 92.7893C36.4458 93.1612 34.7723 94.0909 31.983 96.1364C29.9375 93.1612 28.0781 89.8141 26.7764 86.0951ZM70.2888 22.5C76.4252 22.686 82.5615 23.8017 88.1401 26.219C93.9045 28.4504 98.9252 31.9835 103.388 36.2603C107.665 40.5372 111.198 45.7438 113.429 51.5083C115.847 57.0868 116.962 63.2232 116.962 69.3595C116.962 75.4959 115.847 81.6323 113.429 87.2108C111.198 92.7893 107.665 97.9959 103.388 102.273C98.9252 106.736 93.9045 110.083 88.1401 112.5C82.5615 114.917 76.4252 116.033 70.2888 116.033C70.2888 116.033 68.7392 115.971 65.64 115.847C64.8962 115.723 64.0904 115.599 63.2227 115.475C62.7268 115.351 62.2309 115.289 61.7351 115.289C61.4871 115.165 61.1772 115.103 60.8053 115.103C60.5574 114.979 60.3095 114.917 60.0615 114.917C58.9458 114.669 57.7682 114.36 56.5285 113.988C55.1648 113.492 53.8012 112.996 52.4375 112.5C50.9499 111.88 49.4624 111.198 47.9747 110.455C47.2309 109.959 46.4872 109.463 45.7434 108.967C44.9995 108.595 44.0698 108.037 43.326 107.479C42.5822 106.983 41.8384 106.426 41.0946 105.806C40.5987 105.434 40.1648 105.062 39.7929 104.69C39.421 104.442 39.0491 104.132 38.6772 103.76C37.1896 102.273 35.702 100.599 34.2144 98.9256C33.4706 98.0579 32.7268 97.1281 31.983 96.1364C34.7723 94.0909 36.4458 93.1612 36.8177 92.7893C38.3053 91.4876 39.9789 90.5579 41.6524 89.4421C42.1483 90.186 42.6442 90.8678 43.14 91.4876C44.2557 92.7893 45.3714 94.0909 46.6731 95.0207C46.921 95.3926 47.169 95.7025 47.4169 95.9504C47.7888 96.1983 48.0987 96.4463 48.3466 96.6942C48.9665 97.0661 49.5863 97.5 50.2061 97.9959C50.764 98.3678 51.3219 98.7397 51.8797 99.1116C52.4996 99.4835 53.0574 99.7934 53.5533 100.041C54.669 100.661 55.7847 101.219 56.9004 101.715C61.1772 103.388 64.5243 103.946 66.9417 104.132C69.1731 104.256 70.2888 104.318 70.2888 104.318C74.9376 104.318 79.4004 103.388 83.6772 101.715C87.9541 99.8554 91.8591 97.2521 95.0202 94.0909C98.3673 90.9297 100.971 87.0248 102.644 82.7479C104.504 78.4711 105.247 73.8223 105.247 69.3595C105.247 64.7108 104.504 60.062 102.644 55.9711C100.971 51.6942 98.3673 47.7893 95.0202 44.4422C91.8591 41.281 87.9541 38.6777 83.6772 37.0042C79.4004 35.1447 74.9376 34.2149 70.2888 34.2149C70.2888 32.3554 70.2888 30.4339 70.2888 28.4504C70.2888 28.4504 70.2888 26.4669 70.2888 22.5Z" fill="url(#paint1_linear_2002_4)"/>
</g>
<path d="M56.5279 17.8521L54.4824 9.67034L55.0403 9.48438L57.0857 17.6662L56.5279 17.8521Z" fill="#3EEBF7"/>
<path d="M54.1111 18.4094L51.5078 10.4135L52.2516 10.2275L54.669 18.2234L54.1111 18.4094Z" fill="#3EEAF5"/>
<path d="M51.694 19.3391L48.7188 11.3432L49.2766 11.1572L52.2518 19.1531L51.694 19.3391Z" fill="#3EE8F3"/>
<path d="M49.2768 20.2693L45.9297 12.4594L46.4875 12.2734L49.8347 20.0834L49.2768 20.2693Z" fill="#3DE6F2"/>
<path d="M46.8592 21.3851L43.3262 13.7612L43.884 13.5752L47.4171 21.0132L46.8592 21.3851Z" fill="#3DE5F0"/>
<path d="M44.628 22.5009L40.5371 15.0629L41.095 14.877L45.1859 22.315L44.628 22.5009Z" fill="#3CE3EE"/>
<path d="M42.396 23.8017L38.1191 16.5497L38.491 16.1777L42.9539 23.4298L42.396 23.8017Z" fill="#3CE1ED"/>
<path d="M40.1644 25.1036L35.5156 18.2235L36.0735 17.8516L40.7222 24.9177L40.1644 25.1036Z" fill="#3CDFEB"/>
<path d="M38.1203 26.5915L33.0996 19.8973L33.6575 19.5254L38.6781 26.2196L38.1203 26.5915Z" fill="#3BDEE9"/>
<path d="M36.2597 28.265L30.8672 21.7567L31.425 21.3848L36.6316 27.893L36.2597 28.265Z" fill="#3BDCE8"/>
<path d="M34.2152 29.9384L28.6367 23.6161L29.0086 23.2441L34.7731 29.3805L34.2152 29.9384Z" fill="#3BDAE6"/>
<path d="M32.3543 31.6123L26.5898 25.662L26.9617 25.29L32.9121 31.2405L32.3543 31.6123Z" fill="#3AD8E4"/>
<path d="M30.6813 33.4713L24.5449 27.7069L24.9168 27.335L31.0532 33.0994L30.6813 33.4713Z" fill="#3AD7E3"/>
<path d="M29.0083 35.3308L22.5 29.9383L22.8719 29.5664L29.3802 34.959L29.0083 35.3308Z" fill="#3AD5E1"/>
<path d="M27.5208 37.3764L20.6406 32.3557L21.1985 31.7979L27.8927 36.8185L27.5208 37.3764Z" fill="#39D3DF"/>
<path d="M26.0329 39.4224L18.9668 34.7736L19.3387 34.2158L26.2189 38.8646L26.0329 39.4224Z" fill="#39D2DE"/>
<path d="M24.5446 41.6535L17.4785 37.1906L17.6644 36.6328L24.9165 41.0956L24.5446 41.6535Z" fill="#39D0DC"/>
<path d="M23.2442 43.8851L15.9922 39.7942L16.1781 39.2363L23.6161 43.3273L23.2442 43.8851Z" fill="#38CEDB"/>
<path d="M22.1279 46.1158L14.5039 42.3968L14.8758 41.8389L22.3138 45.5579L22.1279 46.1158Z" fill="#38CCD9"/>
<path d="M21.0127 48.3473L13.3887 45.0002L13.5746 44.4424L21.3845 47.7895L21.0127 48.3473Z" fill="#37CBD7"/>
<path d="M20.0814 50.7645L12.2715 47.7893L12.4574 47.2314L20.2674 50.2066L20.0814 50.7645Z" fill="#37C9D6"/>
<path d="M19.3377 53.1826L11.3418 50.7653L11.5277 50.0215L19.5236 52.6248L19.3377 53.1826Z" fill="#37C7D4"/>
<path d="M18.5939 55.7853L10.4121 53.554L10.598 52.9961L18.7799 55.2275L18.5939 55.7853Z" fill="#36C6D2"/>
<path d="M18.0377 58.3891L9.66992 56.5296L9.85588 55.9717L18.0377 57.6452V58.3891Z" fill="#36C4D1"/>
<path d="M17.4791 60.9927L9.11133 59.5051L9.29726 58.9473L17.4791 60.2489V60.9927Z" fill="#36C2CF"/>
<path d="M17.108 63.5954L8.74023 62.6657V61.9219L17.108 62.8516V63.5954Z" fill="#35C0CD"/>
<path d="M16.9205 66.1987L8.55273 65.6409V65.083L16.9205 65.6409V66.1987Z" fill="#35BFCC"/>
<path d="M16.735 68.9879L8.36719 68.802V68.2441H16.735V68.9879Z" fill="#35BDCA"/>
<path d="M8.36719 71.963V71.4051L16.9209 71.0332V71.591L8.36719 71.963Z" fill="#34BBC8"/>
<path d="M8.73867 75.1239L8.55273 74.5661L16.9205 73.8223L17.1064 74.3801L8.73867 75.1239Z" fill="#34B9C7"/>
<path d="M9.11174 78.0993L8.92578 77.5415L17.2936 76.4258V76.9837L9.11174 78.0993Z" fill="#34B8C5"/>
<path d="M9.48242 81.2607V80.5169L17.6642 79.0293L17.8502 79.5872L9.48242 81.2607Z" fill="#33B6C3"/>
<path d="M10.2269 84.2361L10.041 83.4923L18.2228 81.6328L18.4088 82.1906L10.2269 84.2361Z" fill="#33B4C2"/>
<path d="M10.9711 87.025L10.7852 86.4671L18.967 84.0498L19.1529 84.7936L10.9711 87.025Z" fill="#32B3C0"/>
<path d="M11.9008 90.0005L11.7148 89.4426L19.7107 86.6533L19.8967 87.2112L11.9008 90.0005Z" fill="#32B1BE"/>
<path d="M13.016 92.7893L12.8301 92.2314L20.64 89.0703L20.8259 89.6281L13.016 92.7893Z" fill="#32AFBD"/>
<path d="M14.1313 95.3927L13.9453 94.8348L21.5693 91.3018L21.7552 91.8596L14.1313 95.3927Z" fill="#31ADBB"/>
<path d="M15.62 98.1825L15.248 97.6246L22.6861 93.7197L23.058 94.2776L15.62 98.1825Z" fill="#31ACB9"/>
<path d="M16.9203 100.786L16.7344 100.228L23.9865 95.9512L24.1724 96.5091L16.9203 100.786Z" fill="#31AAB8"/>
<path d="M18.5946 103.203L18.2227 102.645L25.2888 98.1826L25.6607 98.5545L18.5946 103.203Z" fill="#30A8B6"/>
<path d="M20.2684 105.62L19.8965 105.062L26.7767 100.228L26.9626 100.785L20.2684 105.62Z" fill="#30A7B4"/>
<path d="M21.9422 108.038L21.5703 107.48L28.2645 102.273L28.6364 102.645L21.9422 108.038Z" fill="#30A5B3"/>
<path d="M23.9875 110.269L23.4297 109.711L29.752 104.133L30.3098 104.691L23.9875 110.269Z" fill="#2FA3B1"/>
<path d="M25.8465 112.315L25.4746 111.943L31.611 105.992L31.9829 106.55L25.8465 112.315Z" fill="#2FA1AF"/>
<path d="M28.0774 114.36L27.5195 113.988L33.284 107.852L33.8418 108.223L28.0774 114.36Z" fill="#2FA0AE"/>
<path d="M30.1238 116.406L29.752 116.034L35.1445 109.525L35.7024 109.897L30.1238 116.406Z" fill="#2E9EAC"/>
<path d="M32.5403 118.265L31.9824 117.893L37.189 111.199L37.5609 111.571L32.5403 118.265Z" fill="#2E9CAA"/>
<path d="M34.7723 119.939L34.4004 119.567L39.2351 112.687L39.793 113.058L34.7723 119.939Z" fill="#2D9BA9"/>
<path d="M37.3762 121.612L36.8184 121.24L41.2812 114.174L41.839 114.546L37.3762 121.612Z" fill="#2D99A7"/>
<path d="M39.7922 123.1L39.2344 122.728L43.5112 115.476L44.0691 115.848L39.7922 123.1Z" fill="#2D97A5"/>
<path d="M42.3957 124.401L41.8379 124.215L45.7429 116.777L46.3007 116.963L42.3957 124.401Z" fill="#2C95A4"/>
<path d="M45.1848 125.702L44.627 125.516L47.9741 117.893L48.5319 118.078L45.1848 125.702Z" fill="#2C94A2"/>
<path d="M47.9739 126.819L47.416 126.633L50.3912 118.823L50.9491 119.009L47.9739 126.819Z" fill="#2C92A0"/>
<path d="M50.7649 127.935L50.207 127.749L52.8104 119.753L53.3682 119.939L50.7649 127.935Z" fill="#2B909F"/>
<path d="M53.554 128.864L52.9961 128.678L55.2275 120.496L55.9713 120.682L53.554 128.864Z" fill="#2B8E9D"/>
<path d="M56.5286 129.422H55.9707L57.8302 121.24H58.3881L56.5286 129.422Z" fill="#2B8D9B"/>
<path d="M59.5032 130.166L58.9453 129.98L60.4329 121.798H60.9908L59.5032 130.166Z" fill="#2A8B9A"/>
<path d="M62.6657 130.538H61.9219L63.0376 122.17H63.5954L62.6657 130.538Z" fill="#2A8998"/>
<path d="M65.6399 130.909L65.082 130.723L65.6399 122.355L66.3837 122.541L65.6399 130.909Z" fill="#2A8896"/>
<path d="M68.802 130.91H68.2441L68.4301 122.542H68.988L68.802 130.91Z" fill="#298695"/>
<path d="M71.4047 130.91L71.2188 122.542H71.7766L71.9625 130.91H71.4047Z" fill="#298493"/>
<path d="M74.5661 130.909L73.8223 122.541L74.3801 122.355L75.1239 130.723L74.5661 130.909Z" fill="#288292"/>
<path d="M77.5411 130.538L76.6113 122.17H77.1692L78.0989 130.538H77.5411Z" fill="#288190"/>
<path d="M80.7025 130.166L79.2148 121.798H79.7727L81.2603 129.98L80.7025 130.166Z" fill="#287F8E"/>
<path d="M83.6779 129.422L81.8184 121.24H82.3762L84.2357 129.422H83.6779Z" fill="#277D8D"/>
<path d="M86.4658 128.864L84.2344 120.682L84.7922 120.496L87.2096 128.678L86.4658 128.864Z" fill="#277C8B"/>
<path d="M89.4412 127.935L86.8379 119.939L87.3957 119.753L89.9991 127.749L89.4412 127.935Z" fill="#277A89"/>
<path d="M92.2311 126.819L89.2559 119.009L89.8137 118.823L92.7889 126.633L92.2311 126.819Z" fill="#267888"/>
<path d="M95.0194 125.702L91.4863 118.078L92.0442 117.893L95.5773 125.516L95.0194 125.702Z" fill="#267686"/>
<path d="M97.6233 124.401L93.9043 116.963L94.4622 116.777L98.1812 124.215L97.6233 124.401Z" fill="#267584"/>
<path d="M100.228 123.1L96.1367 115.848L96.6946 115.476L100.785 122.728L100.228 123.1Z" fill="#257383"/>
<path d="M102.83 121.612L98.3672 114.546L98.925 114.174L103.388 121.24L102.83 121.612Z" fill="#257181"/>
<path d="M105.247 119.939L100.412 113.058L100.97 112.687L105.805 119.567L105.247 119.939Z" fill="#256F7F"/>
<path d="M107.666 118.265L102.459 111.571L103.017 111.199L108.223 117.893L107.666 118.265Z" fill="#246E7E"/>
<path d="M109.896 116.406L104.504 109.897L104.876 109.525L110.454 116.034L109.896 116.406Z" fill="#246C7C"/>
<path d="M112.128 114.36L106.363 108.223L106.921 107.852L112.686 113.988L112.128 114.36Z" fill="#236A7A"/>
<path d="M114.173 112.315L108.223 106.55L108.595 105.992L114.731 111.943L114.173 112.315Z" fill="#236979"/>
<path d="M116.219 110.269L109.896 104.691L110.268 104.133L116.591 109.711L116.219 110.269Z" fill="#236777"/>
<path d="M118.079 108.038L111.57 102.645L111.942 102.273L118.636 107.48L118.079 108.038Z" fill="#226575"/>
<path d="M119.937 105.62L113.057 100.785L113.429 100.228L120.309 105.062L119.937 105.62Z" fill="#226374"/>
<path d="M121.611 103.203L114.545 98.5545L114.917 98.1826L121.983 102.645L121.611 103.203Z" fill="#226272"/>
<path d="M123.286 100.786L115.848 96.5091L116.22 95.9512L123.472 100.228L123.286 100.786Z" fill="#216070"/>
<path d="M124.586 98.1825L117.148 94.2776L117.52 93.7197L124.958 97.6246L124.586 98.1825Z" fill="#215E6F"/>
<path d="M125.888 95.3927L118.264 91.8596L118.636 91.3018L126.26 94.8348L125.888 95.3927Z" fill="#215D6D"/>
<path d="M127.189 92.7893L119.379 89.6281L119.565 89.0703L127.375 92.2314L127.189 92.7893Z" fill="#205B6B"/>
<path d="M128.304 90.0005L120.309 87.2112L120.495 86.6533L128.49 89.4426L128.304 90.0005Z" fill="#20596A"/>
<path d="M129.235 87.025L121.053 84.7936L121.239 84.0498L129.421 86.4671L129.235 87.025Z" fill="#205768"/>
<path d="M129.979 84.2361L121.797 82.1906L121.983 81.6328L130.165 83.4923L129.979 84.2361Z" fill="#1F5666"/>
<path d="M130.723 81.2607L122.355 79.5872L122.541 79.0293L130.723 80.5169V81.2607Z" fill="#1F5465"/>
<path d="M131.094 78.0993L122.727 76.9837L122.913 76.4258L131.28 77.5415L131.094 78.0993Z" fill="#1E5263"/>
<path d="M131.467 75.1239L123.1 74.3801V73.8223L131.653 74.5661L131.467 75.1239Z" fill="#1E5161"/>
<path d="M131.653 71.963L123.285 71.591V71.0332L131.653 71.4051V71.963Z" fill="#1E4F60"/>
<path d="M123.285 68.9879V68.2441H131.839V68.802L123.285 68.9879Z" fill="#1D4D5E"/>
<path d="M123.285 66.1987V65.6409L131.653 65.083V65.6409L123.285 66.1987Z" fill="#1D4B5C"/>
<path d="M123.098 63.5954L122.912 62.8516L131.28 61.9219L131.466 62.6657L123.098 63.5954Z" fill="#1D4A5B"/>
<path d="M122.727 60.9927L122.541 60.2489L130.909 58.9473L131.095 59.5051L122.727 60.9927Z" fill="#1C4859"/>
<path d="M122.17 58.3891V57.6452L130.352 55.9717L130.538 56.5296L122.17 58.3891Z" fill="#1C4657"/>
<path d="M121.612 55.7853L121.426 55.2275L129.608 52.9961L129.794 53.554L121.612 55.7853Z" fill="#1C4456"/>
<path d="M120.868 53.1826L120.682 52.6248L128.677 50.0215L128.863 50.7653L120.868 53.1826Z" fill="#1B4354"/>
<path d="M120.124 50.7645L119.752 50.2066L127.748 47.2314L127.934 47.7893L120.124 50.7645Z" fill="#1B4152"/>
<path d="M119.194 48.3473L118.822 47.7895L126.632 44.4424L126.818 45.0002L119.194 48.3473Z" fill="#1B3F51"/>
<path d="M118.079 46.1158L117.707 45.5579L125.331 41.8389L125.517 42.3968L118.079 46.1158Z" fill="#1A3E4F"/>
<path d="M116.962 43.8851L116.59 43.3273L123.842 39.2363L124.214 39.7942L116.962 43.8851Z" fill="#1A3C4D"/>
<path d="M115.661 41.6535L115.289 41.0956L122.355 36.6328L122.727 37.1906L115.661 41.6535Z" fill="#193A4C"/>
<path d="M114.173 39.4224L113.801 38.8646L120.867 34.2158L121.239 34.7736L114.173 39.4224Z" fill="#19384A"/>
<path d="M112.686 37.3764L112.314 36.8185L119.009 31.7979L119.381 32.3557L112.686 37.3764Z" fill="#193749"/>
<path d="M111.198 35.3308L110.826 34.959L117.148 29.5664L117.706 29.9383L111.198 35.3308Z" fill="#183547"/>
<path d="M109.524 33.4713L109.152 33.0994L115.289 27.335L115.661 27.7069L109.524 33.4713Z" fill="#183345"/>
<path d="M107.665 31.6123L107.293 31.2405L113.243 25.29L113.615 25.662L107.665 31.6123Z" fill="#183244"/>
<path d="M105.991 29.9384L105.434 29.3805L111.012 23.2441L111.57 23.6161L105.991 29.9384Z" fill="#173042"/>
<path d="M103.946 28.265L103.574 27.893L108.781 21.3848L109.339 21.7567L103.946 28.265Z" fill="#172E40"/>
<path d="M102.087 26.5915L101.529 26.2196L106.55 19.5254L106.922 19.8973L102.087 26.5915Z" fill="#172C3F"/>
<path d="M99.8543 25.1036L99.4824 24.9177L104.131 17.8516L104.689 18.2235L99.8543 25.1036Z" fill="#162B3D"/>
<path d="M97.8098 23.8017L97.252 23.4298L101.529 16.1777L102.087 16.5497L97.8098 23.8017Z" fill="#16293B"/>
<path d="M95.5774 22.5009L95.0195 22.315L98.9245 14.877L99.4823 15.0629L95.5774 22.5009Z" fill="#16273A"/>
<path d="M93.3469 21.3851L92.7891 21.0132L96.3221 13.5752L96.88 13.7612L93.3469 21.3851Z" fill="#152538"/>
<path d="M90.929 20.2693L90.3711 20.0834L93.7182 12.2734L94.276 12.4594L90.929 20.2693Z" fill="#152436"/>
<path d="M88.5129 19.3391L87.9551 19.1531L90.9303 11.1572L91.4881 11.3432L88.5129 19.3391Z" fill="#142235"/>
<path d="M86.095 18.4094L85.5371 18.2234L87.9545 10.2275L88.5123 10.4135L86.095 18.4094Z" fill="#142033"/>
<path d="M83.6774 17.8521L82.9336 17.6662L85.165 9.48438L85.7229 9.67034L83.6774 17.8521Z" fill="#141F31"/>
<defs>
<linearGradient id="paint0_linear_2002_4" x1="-12158" y1="1051.86" x2="-13037.4" y2="2224.71" gradientUnits="userSpaceOnUse">
<stop/>
<stop offset="1" stop-color="#40F4FF"/>
</linearGradient>
<linearGradient id="paint1_linear_2002_4" x1="19174.4" y1="11984.2" x2="21519.7" y2="10225" gradientUnits="userSpaceOnUse">
<stop/>
<stop offset="1" stop-color="#40F4FF"/>
</linearGradient>
</defs>
</svg>
