<svg width="238" height="114" viewBox="0 0 238 114" fill="none" xmlns="http://www.w3.org/2000/svg">
<path d="M118.08 22.1279C92.6044 22.1279 54.4846 25.8469 32.5424 38.1197C23.6168 43.1403 15.8069 50.7643 20.8276 59.8759C27.5218 72.5205 54.2987 79.4007 68.6169 82.1899L81.2615 75.1238C46.1168 68.4296 34.0301 53.7395 54.2987 42.2106C75.683 30.3098 121.427 27.1486 154.898 33.4709L167.542 26.4048C152.48 23.6155 135.373 22.1279 118.08 22.1279Z" fill="#163C5B"/>
<path d="M216.82 54.2969H191.716C191.716 58.5737 188.183 62.6647 181.861 66.1977C165.311 75.4952 137.047 78.2845 118.08 78.2845V86.4663C143.369 86.4663 181.489 82.7473 203.617 70.2886C212.357 65.4539 216.82 59.8754 216.82 54.2969Z" fill="#163C5B"/>
<path d="M90.7439 21.1982C70.2893 23.0577 37.934 28.4503 21.5703 40.723L22.6861 40.909C35.1448 31.4255 60.8059 24.1735 91.1158 21.5702L90.7439 21.1982Z" fill="#163C5B"/>
<path d="M17.4804 44.2559C14.5052 47.479 13.0176 50.8261 13.0176 54.2972H14.1332C14.1332 50.9501 15.6209 47.6649 18.5961 44.4418L17.4804 44.2559Z" fill="#163C5B"/>
<path d="M34.588 74.3799L33.6582 74.7518C40.3524 77.5411 48.1624 79.9584 57.088 82.1898L57.8318 81.8179C48.9061 79.7724 41.0962 77.3551 34.588 74.3799Z" fill="#163C5B"/>
<path d="M162.707 84.793C139.278 88.512 113.245 88.8839 90.0008 86.8384L89.6289 87.2103C113.245 89.2558 139.464 88.8838 163.265 85.1648L162.707 84.793Z" fill="#163C5B"/>
<path d="M193.016 77.7266C187.624 79.4001 181.859 81.0737 175.537 82.3753L176.095 82.7472C182.417 81.4456 188.368 79.772 193.76 77.9125L193.016 77.7266Z" fill="#163C5B"/>
<path d="M221.654 48.5332L220.538 48.7191C226.861 60.9919 211.241 70.6613 198.41 75.682L199.34 75.8679C212.356 70.6613 227.976 61.1778 221.654 48.5332Z" fill="#163C5B"/>
<path d="M194.505 30.8672L193.762 31.0531C204.733 34.9581 213.101 39.6068 217.563 44.6275L218.679 44.4415C214.03 39.4209 205.662 34.7721 194.505 30.8672Z" fill="#163C5B"/>
<path d="M118.079 20.082C115.476 20.082 112.873 20.082 110.27 20.082L110.456 20.4539C127.191 20.082 144.484 21.0118 160.848 23.4291L161.406 23.0572C147.832 21.0118 133.141 20.082 118.079 20.082Z" fill="#163C5B"/>
<path d="M157.316 72.7061C153.969 73.4499 150.436 74.1317 146.717 74.7515L147.275 75.1234C150.994 74.5036 154.589 73.8217 158.06 73.0779L157.316 72.7061Z" fill="#163C5B"/>
<path d="M180.002 64.3389C174.795 67.5 168.101 69.9174 162.15 71.5909L162.894 71.7769C168.845 70.2893 175.725 67.8719 180.931 64.3389H180.002Z" fill="#163C5B"/>
<path d="M139.464 32.541L139.092 32.9129C149.691 34.0286 158.989 35.8881 166.798 38.3055L167.728 38.1195C159.732 35.5162 150.249 33.6567 139.464 32.541Z" fill="#163C5B"/>
<path d="M118.079 31.4258C115.227 31.4258 112.438 31.4878 109.711 31.6117L109.897 31.9836C117.893 31.6117 125.889 31.7977 133.327 32.3555L133.699 31.9836C128.492 31.6117 123.285 31.4258 118.079 31.4258Z" fill="#163C5B"/>
<path d="M90.0014 37.1895C84.7948 38.1192 80.146 39.2349 75.8691 40.5366L76.7989 40.9085C80.8898 39.4209 85.5386 38.3051 90.5593 37.5613L90.0014 37.1895Z" fill="#163C5B"/>
<path d="M226.302 87.0244C225.186 89.1319 223.513 91.1773 221.281 93.1608H222.211C224.442 91.1773 226.178 89.1319 227.418 87.0244H226.302Z" fill="#163C5B"/>
<path d="M223.328 69.1729H222.398C226.675 73.2638 229.279 78.2844 227.605 83.8629H228.721C230.208 78.2844 227.605 73.2638 223.328 69.1729Z" fill="#163C5B"/>
<path d="M59.6917 50.2061C48.9066 52.2515 39.4232 55.0408 31.6133 58.3879L32.3571 58.5738C40.167 55.4127 49.4646 52.6234 60.2497 50.392L59.6917 50.2061Z" fill="#163C5B"/>
<path d="M19.5255 95.9502L18.5957 96.1362C20.9511 97.7477 23.6784 99.2973 26.7776 100.785L27.5213 100.599C24.5461 99.1114 21.8808 97.5618 19.5255 95.9502Z" fill="#163C5B"/>
<path d="M32.7281 102.83L31.9844 103.016C42.0257 107.107 54.8563 110.64 69.1745 112.871L69.7323 112.5C55.4141 110.268 42.7694 106.921 32.7281 102.83Z" fill="#163C5B"/>
<path d="M202.314 44.2559L199.153 45.1856C209.752 48.7187 218.12 52.8096 223.884 57.2724C235.413 66.384 235.413 76.6112 223.884 85.7228L225.93 85.9088H225.558C223.946 87.1484 222.149 88.3881 220.165 89.6278C219.422 88.884 218.864 88.698 218.492 88.3261C203.802 97.2517 183.161 101.9 166.054 104.69C167.541 104.876 168.657 105.062 170.145 105.248C169.277 105.372 168.347 105.495 167.355 105.619C166.24 105.434 164.938 105.248 163.636 105.062C163.264 105.248 163.079 105.434 163.079 105.434C164.194 105.558 165.186 105.681 166.054 105.805C165.186 105.929 164.256 106.053 163.264 106.177C162.149 105.991 161.033 105.805 159.545 105.619C159.545 105.619 158.988 105.991 159.174 105.991C160.165 106.115 161.095 106.239 161.963 106.363C161.095 106.487 160.165 106.611 159.174 106.735C157.314 106.549 157.686 106.549 155.455 106.177L155.083 106.363C157.314 106.921 156.756 106.735 157.872 106.921C156.88 107.045 155.888 107.169 154.897 107.293C153.781 107.045 152.603 106.797 151.364 106.549C151.178 106.549 150.806 106.921 150.806 106.735C151.798 106.983 152.727 107.231 153.595 107.479C152.603 107.479 151.612 107.541 150.62 107.665C149.504 107.417 148.388 107.169 147.273 106.921C147.087 106.921 146.529 107.293 146.715 107.107C147.583 107.355 148.45 107.603 149.318 107.851C148.326 107.975 147.335 108.037 146.343 108.037C145.227 107.789 144.112 107.541 142.996 107.293L142.81 107.479L142.624 107.293C120.682 108.781 97.0661 108.223 75.4958 105.248L75.124 105.619C97.0662 108.595 120.868 109.153 142.624 107.479C143.492 107.727 144.298 107.975 145.041 108.223C111.384 110.826 68.6158 108.595 36.6323 98.1814C25.8472 94.6484 17.2934 90.5575 11.529 85.9088H10.9711L13.0166 85.7228C1.85953 76.7972 1.30168 66.5699 13.0166 57.2724C18.781 52.8096 27.1488 48.7187 37.7479 45.1856L34.7728 44.2559C23.6157 47.7889 14.876 52.0658 8.92562 56.7145C-2.97521 66.198 -2.97521 76.7972 8.92562 86.2806L10.5992 86.0947C41.281 110.268 135.186 116.962 194.504 100.413C196.364 100.413 197.851 100.413 198.967 100.599C205.289 98.7393 211.24 96.6939 217.19 93.9046C216.818 93.4087 216.446 92.9129 216.074 92.417C220.165 90.4336 223.636 88.3261 226.488 86.0947L227.975 86.2806C240.062 76.7972 240.062 66.198 227.975 56.7145C222.025 52.0658 213.285 47.7889 202.314 44.2559Z" fill="#40F4FF"/>
<path d="M132.955 35.5166L132.77 35.7025C142.067 36.6323 160.104 39.4216 166.055 46.6736L167.17 46.4877C161.034 39.2356 142.439 36.2604 132.955 35.5166Z" fill="#40F4FF"/>
<path d="M108.039 35.5166C98.5552 36.2604 79.9602 39.2356 74.0098 46.4877L75.1255 46.6736C80.89 39.4216 99.1131 36.6323 108.411 35.7025L108.039 35.5166Z" fill="#40F4FF"/>
<path d="M75.1255 54.4834L74.0098 54.6693C79.9602 61.9214 98.5552 64.8966 108.039 65.8264L108.411 65.4545C99.1131 64.5247 80.89 61.7355 75.1255 54.4834Z" fill="#40F4FF"/>
<path d="M166.055 54.4834C160.104 61.7355 142.067 64.5247 132.77 65.4545L132.955 65.8264C142.625 64.8966 161.034 61.9214 167.17 54.6693L166.055 54.4834Z" fill="#40F4FF"/>
<path d="M120.497 111.384H119.01L119.196 113.429H120.683L120.497 111.384Z" fill="#40F4FF"/>
<path d="M125.703 111.198H124.029L124.401 113.43H126.075L125.703 111.198Z" fill="#40F4FF"/>
<path d="M130.724 111.012L129.051 111.198L129.795 113.243H131.282L130.724 111.012Z" fill="#40F4FF"/>
<path d="M135.558 110.826L134.07 111.012L135 113.058L136.674 112.872L135.558 110.826Z" fill="#40F4FF"/>
<path d="M140.58 110.641H138.906L140.208 112.686H141.881L140.58 110.641Z" fill="#40F4FF"/>
<path d="M65.2701 107.293L62.2949 109.152L63.7825 109.338L66.7578 107.479L65.2701 107.293Z" fill="#40F4FF"/>
<path d="M69.7323 108.037L67.1289 109.897L68.6166 110.083L71.2198 108.223L69.7323 108.037Z" fill="#40F4FF"/>
<path d="M74.3802 108.595L71.9629 110.64L73.6364 110.826L75.8678 108.781L74.3802 108.595Z" fill="#40F4FF"/>
<path d="M79.2157 109.152L76.9844 111.198L78.6579 111.384L80.7034 109.338L79.2157 109.152Z" fill="#40F4FF"/>
<path d="M83.8649 109.711L82.1914 111.756L83.679 111.942L85.5385 109.897L83.8649 109.711Z" fill="#40F4FF"/>
<path d="M88.6985 110.269L87.2109 112.314H88.8844L90.372 110.269H88.6985Z" fill="#40F4FF"/>
<path d="M93.7196 110.641L92.418 112.686H94.0915L95.2072 110.641H93.7196Z" fill="#40F4FF"/>
<path d="M98.7407 110.826L97.625 112.872L99.2986 113.058L100.228 111.012L98.7407 110.826Z" fill="#40F4FF"/>
<path d="M103.576 111.012L102.832 113.243H104.506L105.249 111.198L103.576 111.012Z" fill="#40F4FF"/>
<path d="M108.597 111.198L108.225 113.43H109.898L110.27 111.198H108.597Z" fill="#40F4FF"/>
<path d="M113.617 111.384V113.429H115.105L115.291 111.384H113.617Z" fill="#40F4FF"/>
<path d="M72.15 38.6777L55.2285 43.3265C56.9641 43.9463 58.6996 44.5662 60.4351 45.186L75.6831 39.9794C74.4434 39.6075 73.2657 39.1736 72.15 38.6777Z" fill="#40F4FF"/>
<path d="M101.901 45L95.3926 51.6942C96.5083 51.8182 97.562 51.9422 98.5538 52.0661L103.76 45.186C103.141 45.062 102.521 45 101.901 45Z" fill="#40F4FF"/>
<path d="M35.3318 24.917C35.2078 26.4046 35.4558 27.8302 36.0756 29.1939L57.6458 28.2641C57.2739 27.1484 57.088 26.0947 57.088 25.103L35.3318 24.917Z" fill="#40F4FF"/>
<path d="M94.2772 44.0703L85.3516 50.5786C86.5912 50.7025 87.8928 50.8885 89.2565 51.1364L96.8804 44.4422C96.0126 44.3182 95.1449 44.1943 94.2772 44.0703Z" fill="#40F4FF"/>
<path d="M98.1825 44.6279L90.5586 51.3222C91.7983 51.4461 92.9759 51.5701 94.0916 51.6941L100.6 44.8139C99.7321 44.6899 98.9263 44.6279 98.1825 44.6279Z" fill="#40F4FF"/>
<path d="M67.6865 36.8184L49.2773 40.7233C50.8889 41.4671 52.5625 42.2109 54.298 42.9547L71.2195 38.306C69.9798 37.8101 68.8022 37.3142 67.6865 36.8184Z" fill="#40F4FF"/>
<path d="M60.2488 31.7969L39.2363 33.8423C40.352 34.958 41.6538 36.0737 43.1414 37.1894L63.0381 34.0283C61.9224 33.2845 60.9926 32.5407 60.2488 31.7969Z" fill="#40F4FF"/>
<path d="M63.5956 34.4004L43.8848 37.5615C45.2484 38.5533 46.798 39.483 48.5335 40.3508L66.9427 36.4459C65.703 35.826 64.5873 35.1442 63.5956 34.4004Z" fill="#40F4FF"/>
<path d="M57.8319 28.6357L36.2617 29.7515C36.8816 30.9911 37.7494 32.2308 38.8651 33.4705L59.8774 31.425C59.0097 30.5572 58.3278 29.6275 57.8319 28.6357Z" fill="#40F4FF"/>
<path d="M90.1866 43.3262L79.7734 49.6485C81.1371 49.8964 82.5627 50.1444 84.0503 50.3923L93.1618 43.884C92.17 43.7601 91.1784 43.5741 90.1866 43.3262Z" fill="#40F4FF"/>
<path d="M116.035 45.7432L114.547 52.8093C115.043 52.8093 115.539 52.8093 116.035 52.8093L116.778 45.7432C116.53 45.7432 116.283 45.7432 116.035 45.7432Z" fill="#40F4FF"/>
<path d="M113.616 45.7432L111.385 52.8093C112.005 52.8093 112.562 52.8093 113.058 52.8093L114.546 45.7432C114.298 45.7432 113.988 45.7432 113.616 45.7432Z" fill="#40F4FF"/>
<path d="M118.08 45.7432L117.336 52.8093C117.832 52.8093 118.266 52.8093 118.638 52.8093V45.7432C118.514 45.7432 118.328 45.7432 118.08 45.7432Z" fill="#40F4FF"/>
<path d="M111.013 45.5576L107.852 52.6237C108.471 52.6237 109.153 52.6857 109.897 52.8097L112.314 45.5576C111.819 45.5576 111.385 45.5576 111.013 45.5576Z" fill="#40F4FF"/>
<path d="M108.224 45.3711L104.133 52.4372C104.877 52.4372 105.682 52.4992 106.55 52.6232L109.711 45.5571C109.215 45.5571 108.72 45.4951 108.224 45.3711Z" fill="#40F4FF"/>
<path d="M85.909 42.582L73.8223 48.5325C75.4338 48.9044 76.9834 49.2143 78.471 49.4622L89.0702 43.1399C87.9545 43.0159 86.9008 42.83 85.909 42.582Z" fill="#40F4FF"/>
<path d="M81.4478 41.4668L67.6875 47.2312C69.2991 47.6031 70.9725 47.9751 72.7081 48.347L84.7948 42.3965C83.6791 42.1486 82.5635 41.8387 81.4478 41.4668Z" fill="#40F4FF"/>
<path d="M105.248 45.1855L99.8555 52.2517C100.847 52.2517 101.777 52.3136 102.645 52.4376L106.922 45.3715C106.302 45.3715 105.744 45.3095 105.248 45.1855Z" fill="#40F4FF"/>
<path d="M76.7987 40.3506L61.5508 45.3712C63.1624 45.8671 64.898 46.363 66.7575 46.8589L80.3318 41.2803C79.0922 40.9084 77.9144 40.5985 76.7987 40.3506Z" fill="#40F4FF"/>
<path d="M188.555 16.9209L183.906 17.8507C184.526 18.2226 185.146 18.5944 185.766 18.9663L190.786 18.0366C190.043 17.6647 189.299 17.2928 188.555 16.9209Z" fill="#40F4FF"/>
<path d="M182.791 14.3184L178.328 15.4341C179.072 15.682 179.692 15.9299 180.188 16.1779L184.836 15.0622C184.093 14.8142 183.411 14.5663 182.791 14.3184Z" fill="#40F4FF"/>
<path d="M185.58 15.4336L181.117 16.5493C181.737 16.7972 182.357 17.1071 182.977 17.479L187.811 16.5493C187.068 16.1774 186.324 15.8055 185.58 15.4336Z" fill="#40F4FF"/>
<path d="M194.134 20.2686L189.113 21.0124C189.857 21.5082 190.539 22.0041 191.159 22.5L196.365 21.9421C195.621 21.3223 194.878 20.7644 194.134 20.2686Z" fill="#40F4FF"/>
<path d="M191.345 18.4092L186.51 19.3389C187.254 19.7108 187.935 20.1447 188.555 20.6406L193.576 19.8968C192.956 19.4009 192.212 18.905 191.345 18.4092Z" fill="#40F4FF"/>
<path d="M174.794 11.5283L170.889 12.83C171.385 13.0779 171.88 13.2639 172.376 13.3878L176.467 12.0862C175.971 11.8382 175.413 11.6523 174.794 11.5283Z" fill="#40F4FF"/>
<path d="M172.377 10.7852L168.658 12.2728C169.154 12.3967 169.588 12.5207 169.96 12.6447L173.865 11.1571C173.369 11.0331 172.873 10.9091 172.377 10.7852Z" fill="#40F4FF"/>
<path d="M168.099 9.66895L164.752 11.1566C165 11.2805 165.248 11.4045 165.496 11.5284L169.215 10.0408C168.843 9.91687 168.471 9.79291 168.099 9.66895Z" fill="#40F4FF"/>
<path d="M196.736 22.3135L191.529 22.8713C192.149 23.4912 192.769 24.111 193.389 24.7308L198.595 24.173C198.1 23.5531 197.48 22.9333 196.736 22.3135Z" fill="#40F4FF"/>
<path d="M177.398 12.2725L173.307 13.5741C173.803 13.822 174.298 14.008 174.794 14.132L179.071 12.8303C178.451 12.7063 177.893 12.5204 177.398 12.2725Z" fill="#40F4FF"/>
<path d="M180.001 13.2021L175.91 14.5038C176.406 14.7517 176.964 14.9377 177.584 15.0617L181.861 13.9459C181.241 13.698 180.621 13.4501 180.001 13.2021Z" fill="#40F4FF"/>
<path d="M194.691 36.6318C194.071 37.6236 193.265 38.6773 192.273 39.793L197.48 40.3508C198.596 39.2351 199.525 38.1194 200.269 37.0037L194.691 36.6318Z" fill="#40F4FF"/>
<path d="M170.146 10.2266L166.613 11.7142C166.985 11.8381 167.357 11.9001 167.729 11.9001L171.448 10.5985C171.076 10.4745 170.642 10.3505 170.146 10.2266Z" fill="#40F4FF"/>
<path d="M196.178 33.2852C195.93 34.2769 195.558 35.2686 195.062 36.2604L200.455 36.4463C201.075 35.4546 201.509 34.4629 201.757 33.4711L196.178 33.2852Z" fill="#40F4FF"/>
<path d="M201.756 30.124L196.178 30.31C196.302 31.1778 196.302 32.0455 196.178 32.9133H201.756C201.88 32.0455 201.88 31.1158 201.756 30.124Z" fill="#40F4FF"/>
<path d="M186.695 43.8838C184.711 44.9995 182.418 46.0532 179.814 47.0449L184.463 48.3466C186.881 47.2309 189.298 46.1152 191.715 44.6276L186.695 43.8838Z" fill="#40F4FF"/>
<path d="M191.717 40.165C190.477 41.2807 188.989 42.3964 187.254 43.5121L192.275 44.2559C194.134 43.1402 195.746 41.9625 197.109 40.7229L191.717 40.165Z" fill="#40F4FF"/>
<path d="M200.827 27.1484L195.248 27.5203C195.62 28.2641 195.93 29.0079 196.178 29.7517H201.57C201.446 28.884 201.198 28.0162 200.827 27.1484Z" fill="#40F4FF"/>
<path d="M198.968 24.5449L193.762 25.1028C194.258 25.7226 194.691 26.4044 195.063 27.1482L200.456 26.7763C200.084 26.0325 199.588 25.2887 198.968 24.5449Z" fill="#40F4FF"/>
<path d="M225.001 25.1025C224.877 25.1025 224.753 25.1025 224.629 25.1025C222.398 26.7761 222.212 26.7761 222.212 26.7761C224.939 29.3794 226.799 32.0447 227.791 34.772C227.977 35.3298 227.977 35.3298 228.162 35.5158C228.162 35.7017 228.348 36.6315 228.348 36.6315C228.348 37.0034 228.348 37.0034 228.534 38.6769L228.348 40.5364C228.162 42.21 228.162 42.024 227.976 42.21L227.791 42.7678C227.791 42.7678 227.976 42.7678 231.138 44.0695C227.605 52.2513 216.82 58.0158 208.638 61.3629C198.039 65.8257 186.138 68.9869 174.795 71.0323C169.588 70.4745 169.96 70.4744 169.588 70.6604C151.179 73.6356 156.944 71.4042 152.295 74.1934C152.109 74.3794 152.667 74.5654 153.038 74.5654C171.262 72.7059 192.646 68.8009 209.381 61.7348C214.588 61.5488 214.774 61.5488 214.96 61.3629C219.051 59.5034 220.91 58.3877 220.724 58.5736C227.047 55.0406 230.58 51.6935 230.58 51.6935C233.369 49.0901 235.972 45.929 236.902 42.21L237.088 40.9083C237.088 40.9083 237.274 40.9083 233.555 39.6067V38.6769L233.369 36.8174L232.997 35.1439L232.253 33.2843C230.766 30.3091 229.836 29.1935 226.861 26.2183C225.559 25.1026 225.559 25.1025 225.001 25.1025Z" fill="#40F4FF"/>
<path d="M16.3654 21.7559C16.1174 21.7559 15.9315 21.7559 15.8075 21.7559C12.6464 23.8013 9.48526 26.4046 7.25385 29.1939C3.53484 33.6567 2.23319 38.4914 4.46459 43.884C3.53484 44.2559 2.04722 44.8137 1.30341 45.3716C1.11746 45.3716 1.30344 45.3716 1.67534 46.3013L2.9769 48.1608C3.7207 49.0906 5.3943 51.322 9.29926 54.1112C13.7621 57.6443 18.9687 60.0616 18.9687 60.0616C21.3861 61.1773 25.8489 63.0368 25.8489 63.0368C26.2208 63.2228 29.196 64.3385 29.196 64.3385C30.6836 64.8964 30.6836 64.8963 31.0555 64.8963C32.791 65.0203 34.5265 65.0823 36.2621 65.0823C52.8117 70.4749 70.8488 72.8922 69.7331 72.7063C70.9728 72.9542 72.1505 73.1402 73.2662 73.2641C73.6381 73.2641 74.1959 73.2641 74.01 73.0782C71.7786 71.2187 72.1505 71.4046 71.7785 71.2187C56.9025 68.9872 43.7001 65.6402 33.1009 61.5493C32.9149 61.3633 33.101 61.5492 27.7084 61.1773C11.7167 54.4831 -2.60152 42.7683 8.1836 29.3798C12.8324 28.4501 12.8323 28.636 13.0183 28.4501L14.1339 27.1484C14.3199 26.9625 16.3654 25.2889 16.1794 25.4749C18.4109 23.6154 18.7827 23.6154 18.5968 23.4294C16.5513 21.7559 16.9232 21.7559 16.3654 21.7559Z" fill="#40F4FF"/>
<path d="M112.5 0.929688C103.761 1.30159 101.715 1.30158 101.715 1.30158C87.025 2.04538 75.1242 3.34705 64.1531 5.20655C59.5043 5.0206 59.8762 5.02059 59.6902 5.02059C46.8597 7.43795 38.3059 10.0413 38.3059 10.2272C38.058 10.5991 37.8721 11.033 37.7481 11.5289C37.3762 12.2727 37.1903 12.4586 36.8184 14.69C48.5332 10.785 56.5292 9.11149 56.5292 9.11149C69.1738 6.32224 85.5374 4.09084 105.434 3.16109C107.48 2.41729 107.851 2.41729 112.5 0.929688Z" fill="#40F4FF"/>
<path d="M124.216 0C123.844 0 122.171 0.557851 120.497 0.929752C117.708 1.67355 117.336 1.67357 112.873 2.97522C137.976 2.78927 161.964 4.4628 186.509 10.5992C188.927 10.5992 189.299 10.5992 196.365 10.7851C182.604 6.88017 169.96 4.27685 152.852 2.60329C151.365 1.85949 150.249 1.48761 150.249 1.48761C149.877 1.30166 132.212 0 124.216 0Z" fill="#40F4FF"/>
<path fill-rule="evenodd" clip-rule="evenodd" d="M113.989 80.7018L113.617 83.4911C98.9269 83.3052 84.7947 82.0035 70.4766 79.4002L74.1956 76.7969C87.3981 79.2142 100.6 80.5159 113.989 80.7018ZM112.873 81.0738C99.4848 80.8878 86.2823 79.4002 74.7534 77.3548L71.9641 79.2143C85.1666 81.6316 99.2988 82.9333 112.501 83.1192L112.873 81.0738Z" fill="#40F4FF"/>
<path d="M119.752 10.4131H118.822L119.008 11.3428H119.752V10.4131Z" fill="#40F4FF"/>
<path d="M117.15 10.4131H116.221L116.593 11.5288L117.336 11.3428L117.15 10.4131Z" fill="#40F4FF"/>
<path d="M114.547 10.4131H113.617L113.989 11.5288H114.919L114.547 10.4131Z" fill="#40F4FF"/>
<path d="M111.943 10.5986H111.199L111.571 11.7143L112.315 11.5284L111.943 10.5986Z" fill="#40F4FF"/>
<path d="M109.339 10.7852H108.596L109.154 11.7149H109.897L109.339 10.7852Z" fill="#40F4FF"/>
<path d="M106.736 10.9707H105.992L106.736 11.9005H107.48L106.736 10.9707Z" fill="#40F4FF"/>
<path d="M104.32 11.1562H103.576L104.32 12.272L105.25 12.086L104.32 11.1562Z" fill="#40F4FF"/>
<path d="M101.717 11.3428L100.973 11.5287L102.088 12.4585L102.832 12.2725L101.717 11.3428Z" fill="#40F4FF"/>
<path d="M99.2985 11.7148H98.5547L99.6703 12.6446H100.414L99.2985 11.7148Z" fill="#40F4FF"/>
<path d="M96.8805 11.9004L96.1367 12.0864L97.4384 13.0161H98.1821L96.8805 11.9004Z" fill="#40F4FF"/>
<path d="M94.4641 12.2725L93.9062 12.4584L95.2079 13.3881L95.9517 13.2022L94.4641 12.2725Z" fill="#40F4FF"/>
<path d="M146.902 12.2725L145.414 13.2022L146.158 13.3881L147.459 12.4584L146.902 12.2725Z" fill="#40F4FF"/>
<path d="M144.485 11.9004L143.184 13.0161H143.927L145.229 12.0864L144.485 11.9004Z" fill="#40F4FF"/>
<path d="M142.067 11.7148L140.951 12.6446H141.695L142.811 11.7148H142.067Z" fill="#40F4FF"/>
<path d="M139.649 11.3428L138.533 12.2725L139.277 12.4585L140.393 11.5287L139.649 11.3428Z" fill="#40F4FF"/>
<path d="M137.047 11.1562L136.117 12.086L137.047 12.272L137.791 11.1562H137.047Z" fill="#40F4FF"/>
<path d="M134.629 10.9707L133.885 11.9005H134.629L135.372 10.9707H134.629Z" fill="#40F4FF"/>
<path d="M132.027 10.7852L131.469 11.7149H132.212L132.77 10.7852H132.027Z" fill="#40F4FF"/>
<path d="M129.423 10.5986L128.865 11.5284L129.795 11.7143L130.167 10.5986H129.423Z" fill="#40F4FF"/>
<path d="M126.819 10.4131L126.447 11.5288H127.377L127.563 10.4131H126.819Z" fill="#40F4FF"/>
<path d="M124.215 10.4131L124.029 11.3428L124.773 11.5288L124.959 10.4131H124.215Z" fill="#40F4FF"/>
<path d="M121.613 10.4131V11.3428H122.357V10.4131H121.613Z" fill="#40F4FF"/>
</svg>
